HIERARCHY
ROOT hip
{
  OFFSET 0 0 0
  CHANNELS 6 Xposition Yposition Zposition Zrotation Yrotation Xrotation
  JOINT abdomen
  {
    OFFSET 0 20.6881 -0.73152
    CHANNELS 3 Zrotation Xrotation Yrotation
    JOINT chest
    {
      OFFSET 0 11.7043 -0.48768
      CHANNELS 3 Zrotation Xrotation Yrotation
      JOINT neck
      {
        OFFSET 0 22.1894 -2.19456
        CHANNELS 3 Zrotation Xrotation Yrotation
        JOINT head
        {
          OFFSET -0.24384 7.07133 1.2192
          CHANNELS 3 Zrotation Xrotation Yrotation
          JOINT leftEye
          {
            OFFSET 4.14528 8.04674 8.04672
            CHANNELS 3 Zrotation Xrotation Yrotation
            End Site
            {
              OFFSET 1 0 0
            }
          }
          JOINT rightEye
          {
            OFFSET -3.6576 8.04674 8.04672
            CHANNELS 3 Zrotation Xrotation Yrotation
            End Site
            {
              OFFSET 1 0 0
            }
          }
        }
      }
      JOINT rCollar
      {
        OFFSET -2.68224 19.2634 -4.8768
        CHANNELS 3 Zrotation Xrotation Yrotation
        JOINT rShldr
        {
          OFFSET -8.77824 -1.95073 1.46304
          CHANNELS 3 Zrotation Xrotation Yrotation
          JOINT rForeArm
          {
            OFFSET -28.1742 -1.7115 0.48768
            CHANNELS 3 Zrotation Xrotation Yrotation
            JOINT rHand
            {
              OFFSET -22.5879 0.773209 7.07136
              CHANNELS 3 Zrotation Xrotation Yrotation
              JOINT rThumb1
              {
                OFFSET -1.2192 -0.487915 3.41376
                CHANNELS 3 Zrotation Xrotation Yrotation
                JOINT rThumb2
                {
                  OFFSET -3.37035 -0.52449 3.41376
                  CHANNELS 3 Zrotation Xrotation Yrotation
                  End Site
                  {
                    OFFSET -1.78271 -1.18214 1.43049
                  }
                }
              }
              JOINT rIndex1
              {
                OFFSET -7.75947 0.938293 5.60832
                CHANNELS 3 Zrotation Xrotation Yrotation
                JOINT rIndex2
                {
                  OFFSET -2.54057 -0.884171 1.56538
                  CHANNELS 3 Zrotation Xrotation Yrotation
                  End Site
                  {
                    OFFSET -1.62519 -0.234802 1.16502
                  }
                }
              }
              JOINT rMid1
              {
                OFFSET -8.24714 1.18213 3.41376
                CHANNELS 3 Zrotation Xrotation Yrotation
                JOINT rMid2
                {
                  OFFSET -3.10165 -0.590103 1.0647
                  CHANNELS 3 Zrotation Xrotation Yrotation
                  End Site
                  {
                    OFFSET -2.48547 -0.328903 0.83742
                  }
                }
              }
              JOINT rRing1
              {
                OFFSET -8.82822 0.546677 1.51678
                CHANNELS 3 Zrotation Xrotation Yrotation
                JOINT rRing2
                {
                  OFFSET -2.60934 -0.819778 -0.0198488
                  CHANNELS 3 Zrotation Xrotation Yrotation
                  End Site
                  {
                    OFFSET -2.33842 -0.294052 0.168128
                  }
                }
              }
              JOINT rPinky1
              {
                OFFSET -8.27202 -0.0477905 -0.4584
                CHANNELS 3 Zrotation Xrotation Yrotation
                JOINT rPinky2
                {
                  OFFSET -1.82734 -0.647385 -0.700984
                  CHANNELS 3 Zrotation Xrotation Yrotation
                  End Site
                  {
                    OFFSET -1.69225 -0.51767 -0.607171
                  }
                }
              }
            }
          }
        }
      }
      JOINT lCollar
      {
        OFFSET 2.68224 19.2634 -4.8768
        CHANNELS 3 Zrotation Xrotation Yrotation
        JOINT lShldr
        {
          OFFSET 8.77824 -1.95073 1.46304
          CHANNELS 3 Zrotation Xrotation Yrotation
          JOINT lForeArm
          {
            OFFSET 28.1742 -1.7115 0.48768
            CHANNELS 3 Zrotation Xrotation Yrotation
            JOINT lHand
            {
              OFFSET 22.5879 0.773209 7.07136
              CHANNELS 3 Zrotation Xrotation Yrotation
              JOINT lThumb1
              {
                OFFSET 1.2192 -0.487915 3.41376
                CHANNELS 3 Zrotation Xrotation Yrotation
                JOINT lThumb2
                {
                  OFFSET 3.37035 -0.52449 3.41376
                  CHANNELS 3 Zrotation Xrotation Yrotation
                  End Site
                  {
                    OFFSET 1.78271 -1.18214 1.43049
                  }
                }
              }
              JOINT lIndex1
              {
                OFFSET 7.75947 0.938293 5.60832
                CHANNELS 3 Zrotation Xrotation Yrotation
                JOINT lIndex2
                {
                  OFFSET 2.54057 -0.884171 1.56538
                  CHANNELS 3 Zrotation Xrotation Yrotation
                  End Site
                  {
                    OFFSET 1.62519 -0.234802 1.16502
                  }
                }
              }
              JOINT lMid1
              {
                OFFSET 8.24714 1.18213 3.41376
                CHANNELS 3 Zrotation Xrotation Yrotation
                JOINT lMid2
                {
                  OFFSET 3.10165 -0.590103 1.0647
                  CHANNELS 3 Zrotation Xrotation Yrotation
                  End Site
                  {
                    OFFSET 2.48547 -0.328903 0.83742
                  }
                }
              }
              JOINT lRing1
              {
                OFFSET 8.82822 0.546677 1.51678
                CHANNELS 3 Zrotation Xrotation Yrotation
                JOINT lRing2
                {
                  OFFSET 2.60934 -0.819778 -0.0198488
                  CHANNELS 3 Zrotation Xrotation Yrotation
                  End Site
                  {
                    OFFSET 2.33842 -0.294052 0.168128
                  }
                }
              }
              JOINT lPinky1
              {
                OFFSET 8.27202 -0.0477905 -0.4584
                CHANNELS 3 Zrotation Xrotation Yrotation
                JOINT lPinky2
                {
                  OFFSET 1.82734 -0.647385 -0.700984
                  CHANNELS 3 Zrotation Xrotation Yrotation
                  End Site
                  {
                    OFFSET 1.69225 -0.51767 -0.607171
                  }
                }
              }
            }
          }
        }
      }
    }
  }
  JOINT rButtock
  {
    OFFSET -8.77824 4.35084 1.2192
    CHANNELS 3 Zrotation Xrotation Yrotation
    JOINT rThigh
    {
      OFFSET 0 -1.70687 -2.19456
      CHANNELS 3 Zrotation Xrotation Yrotation
      JOINT rShin
      {
        OFFSET 0 -36.8199 0.73152
        CHANNELS 3 Zrotation Xrotation Yrotation
        JOINT rFoot
        {
          OFFSET 0.73152 -45.1104 -5.12064
          CHANNELS 3 Zrotation Xrotation Yrotation
          End Site
          {
            OFFSET -1.1221 -3.69964 12.103
          }
        }
      }
    }
  }
  JOINT lButtock
  {
    OFFSET 8.77824 4.35084 1.2192
    CHANNELS 3 Zrotation Xrotation Yrotation
    JOINT lThigh
    {
      OFFSET 0 -1.70687 -2.19456
      CHANNELS 3 Zrotation Xrotation Yrotation
      JOINT lShin
      {
        OFFSET 0 -36.8199 0.73152
        CHANNELS 3 Zrotation Xrotation Yrotation
        JOINT lFoot
        {
          OFFSET -0.73152 -45.1104 -5.12064
          CHANNELS 3 Zrotation Xrotation Yrotation
          End Site
          {
            OFFSET 1.1221 -3.69964 12.103
          }
        }
      }
    }
  }
}
MOTION
Frames:	6
Frame Time:	0.03333
6.7837659604265355 53.55139970779419 -94.56020025536418 14.292600631713867 24.728099822998047 16.663002014160156 -15.447385787963867 10.320694923400879 -0.4942582845687866 5.98089599609375 -12.062009811401367 0.33936673402786255 -8.042913436889648 14.605792045593262 -11.051092147827148 6.45184850692749 -26.4126033782959 -20.132705688476562 -0.0 0.0 -0.0 -0.0 0.0 -0.0 -0.0 0.0 -0.0 26.65890121459961 -20.977304458618164 66.29469299316406 -10.481003761291504 -4.4448442459106445 18.69709587097168 -0.2205967754125595 15.276610374450684 2.1813573837280273 -0.0 0.0 -0.0 -0.0 0.0 -0.0 -0.0 0.0 -0.0 7.73087739944458 5.47489595413208 0.41732463240623474 -0.0 0.0 -0.0 2.9054994583129883 0.9650753736495972 0.10300876200199127 -0.0 0.0 -0.0 10.278595924377441 0.7317469120025635 0.026285577565431595 -0.0 0.0 -0.0 2.221662759780884 -0.7335850596427917 -0.20831839740276337 -0.0 0.0 -0.0 -114.385986328125 50.1355094909668 48.44509506225586 27.93670082092285 -40.915897369384766 -85.43328857421875 11.727226257324219 -65.65239715576172 18.09075355529785 -0.0 0.0 -0.0 -0.0 0.0 -0.0 -0.0 0.0 -0.0 -7.73087739944458 5.47489595413208 -0.41732463240623474 -0.0 0.0 -0.0 -2.9054994583129883 0.9650753736495972 -0.10300876200199127 -0.0 0.0 -0.0 -10.278595924377441 0.7317469120025635 -0.026285577565431595 -0.0 0.0 -0.0 -2.221662759780884 -0.7335850596427917 0.20831839740276337 -0.0 0.0 -0.0 -87.78350830078125 -59.061798095703125 -77.69110870361328 -1.8128646612167358 67.88459777832031 2.1300787925720215 0.7116437554359436 0.08135204762220383 7.559077739715576 -0.0 0.0 -0.0 8.47717571258545 11.924307823181152 4.462245464324951 -0.24234001338481903 22.53360366821289 -2.683957576751709 3.412327289581299 -9.94428825378418 32.6935920715332
6.943845956993755 53.657299280166626 -95.03190023824573 13.26270580291748 25.72890281677246 15.646686553955078 -15.053696632385254 10.842411994934082 -0.4852002263069153 6.401498794555664 -11.558406829833984 0.35251569747924805 -8.01679515838623 14.788100242614746 -11.342205047607422 6.173482894897461 -26.029396057128906 -20.786399841308594 -0.0 0.0 -0.0 -0.0 0.0 -0.0 -0.0 0.0 -0.0 28.912294387817383 -20.96619987487793 67.13429260253906 -11.000779151916504 -4.772076606750488 19.69210433959961 -0.08028952032327652 8.057276725769043 1.1399672031402588 -0.0 0.0 -0.0 -0.0 0.0 -0.0 -0.0 0.0 -0.0 7.73087739944458 5.47489595413208 0.41732463240623474 -0.0 0.0 -0.0 2.9054994583129883 0.9650753736495972 0.10300876200199127 -0.0 0.0 -0.0 10.278595924377441 0.7317469120025635 0.026285577565431595 -0.0 0.0 -0.0 2.221662759780884 -0.7335850596427917 -0.20831839740276337 -0.0 0.0 -0.0 -114.5300064086914 47.271202087402344 49.75960159301758 27.58221435546875 -42.21559524536133 -87.99249267578125 13.51732349395752 -67.7007827758789 20.04071617126465 -0.0 0.0 -0.0 -0.0 0.0 -0.0 -0.0 0.0 -0.0 -7.73087739944458 5.47489595413208 -0.41732463240623474 -0.0 0.0 -0.0 -2.9054994583129883 0.9650753736495972 -0.10300876200199127 -0.0 0.0 -0.0 -10.278595924377441 0.7317469120025635 -0.026285577565431595 -0.0 0.0 -0.0 -2.221662759780884 -0.7335850596427917 0.20831839740276337 -0.0 0.0 -0.0 -84.7593994140625 -59.2924919128418 -74.83799743652344 -1.7902169227600098 67.62189483642578 2.072481155395508 1.2060655355453491 -0.671131432056427 9.442599296569824 -0.0 0.0 -0.0 10.234289169311523 9.699577331542969 4.809260845184326 -0.2141036093235016 26.492998123168945 -2.8063573837280273 4.3416748046875 -11.324902534484863 32.59040451049805
7.270505953056272 53.8316011428833 -95.42470024898648 12.023898124694824 26.459896087646484 14.456893920898438 -13.75279426574707 10.787400245666504 -0.13139015436172485 5.9587626457214355 -11.041407585144043 0.40994635224342346 -8.078006744384766 15.138490676879883 -11.565293312072754 6.301208972930908 -25.06940269470215 -21.224504470825195 -0.0 0.0 -0.0 -0.0 0.0 -0.0 -0.0 0.0 -0.0 32.85249710083008 -21.887601852416992 67.88849639892578 -10.073486328125 -4.206921100616455 17.908296585083008 -0.25784510374069214 18.014423370361328 2.5677969455718994 -0.0 0.0 -0.0 -0.0 0.0 -0.0 -0.0 0.0 -0.0 7.73087739944458 5.47489595413208 0.41732463240623474 -0.0 0.0 -0.0 2.9054994583129883 0.9650753736495972 0.10300876200199127 -0.0 0.0 -0.0 10.278595924377441 0.7317469120025635 0.026285577565431595 -0.0 0.0 -0.0 2.221662759780884 -0.7335850596427917 -0.20831839740276337 -0.0 0.0 -0.0 -115.6519775390625 46.41499710083008 51.26469421386719 27.383811950683594 -42.85219955444336 -89.25029754638672 11.452005386352539 -65.3010482788086 17.787738800048828 -0.0 0.0 -0.0 -0.0 0.0 -0.0 -0.0 0.0 -0.0 -7.73087739944458 5.47489595413208 -0.41732463240623474 -0.0 0.0 -0.0 -2.9054994583129883 0.9650753736495972 -0.10300876200199127 -0.0 0.0 -0.0 -10.278595924377441 0.7317469120025635 -0.026285577565431595 -0.0 0.0 -0.0 -2.221662759780884 -0.7335850596427917 0.20831839740276337 -0.0 0.0 -0.0 -81.76637268066406 -59.11699295043945 -72.97398376464844 -1.8662739992141724 68.10739135742188 2.099228858947754 1.5837823152542114 -0.7833062410354614 11.897705078125 -0.0 0.0 -0.0 11.249502182006836 8.841211318969727 4.092171669006348 -0.1894640326499939 28.707796096801758 -2.8371992111206055 5.130869388580322 -12.065302848815918 33.350704193115234
7.647935951536056 54.069799184799194 -95.71660025976598 11.383993148803711 27.010498046875 13.271309852600098 -12.749702453613281 10.604504585266113 0.3596813678741455 5.367396354675293 -10.60069465637207 0.4983125329017639 -8.159469604492188 15.481493949890137 -11.737308502197266 6.597010612487793 -23.93059730529785 -21.53089714050293 -0.0 0.0 -0.0 -0.0 0.0 -0.0 -0.0 0.0 -0.0 35.99580001831055 -22.483196258544922 68.21919250488281 -8.939062118530273 -3.52109956741333 15.826382637023926 -1.1712839603424072 29.169597625732422 4.499367713928223 -0.0 0.0 -0.0 -0.0 0.0 -0.0 -0.0 0.0 -0.0 7.73087739944458 5.47489595413208 0.41732463240623474 -0.0 0.0 -0.0 2.9054994583129883 0.9650753736495972 0.10300876200199127 -0.0 0.0 -0.0 10.278595924377441 0.7317469120025635 0.026285577565431595 -0.0 0.0 -0.0 2.221662759780884 -0.7335850596427917 -0.20831839740276337 -0.0 0.0 -0.0 -116.3949966430664 46.20070266723633 52.099388122558594 27.306198120117188 -43.136688232421875 -89.75249481201172 9.954383850097656 -63.16129684448242 16.12641716003418 -0.0 0.0 -0.0 -0.0 0.0 -0.0 -0.0 0.0 -0.0 -7.73087739944458 5.47489595413208 -0.41732463240623474 -0.0 0.0 -0.0 -2.9054994583129883 0.9650753736495972 -0.10300876200199127 -0.0 0.0 -0.0 -10.278595924377441 0.7317469120025635 -0.026285577565431595 -0.0 0.0 -0.0 -2.221662759780884 -0.7335850596427917 0.20831839740276337 -0.0 0.0 -0.0 -78.99640655517578 -58.86970520019531 -71.17200469970703 -1.9678443670272827 68.85598754882812 2.1837451457977295 1.7604668140411377 -0.27494344115257263 14.346301078796387 -0.0 0.0 -0.0 11.529004096984863 8.865570068359375 3.1761155128479004 -0.17609164118766785 29.76190185546875 -2.799886703491211 5.725870609283447 -12.45142650604248 34.169498443603516
7.952245952037629 54.34449911117554 -95.87330026552081 11.73080825805664 27.19679832458496 12.369393348693848 -13.433287620544434 10.838412284851074 0.974454402923584 5.154303073883057 -10.452589988708496 0.5824933052062988 -8.269499778747559 15.666401863098145 -11.892707824707031 7.206691741943359 -22.882400512695312 -21.738101959228516 -0.0 0.0 -0.0 -0.0 0.0 -0.0 -0.0 0.0 -0.0 34.316898345947266 -21.273799896240234 66.85800170898438 -8.82486343383789 -3.4519894123077393 15.623088836669922 -0.8951685428619385 26.123971939086914 3.9444570541381836 -0.0 0.0 -0.0 -0.0 0.0 -0.0 -0.0 0.0 -0.0 7.73087739944458 5.47489595413208 0.41732463240623474 -0.0 0.0 -0.0 2.9054994583129883 0.9650753736495972 0.10300876200199127 -0.0 0.0 -0.0 10.278595924377441 0.7317469120025635 0.026285577565431595 -0.0 0.0 -0.0 2.221662759780884 -0.7335850596427917 -0.20831839740276337 -0.0 0.0 -0.0 -114.87899780273438 45.45770263671875 51.21469497680664 27.322891235351562 -43.07419967651367 -89.64408874511719 12.518228530883789 -66.66795349121094 18.96536636352539 -0.0 0.0 -0.0 -0.0 0.0 -0.0 -0.0 0.0 -0.0 -7.73087739944458 5.47489595413208 -0.41732463240623474 -0.0 0.0 -0.0 -2.9054994583129883 0.9650753736495972 -0.10300876200199127 -0.0 0.0 -0.0 -10.278595924377441 0.7317469120025635 -0.026285577565431595 -0.0 0.0 -0.0 -2.221662759780884 -0.7335850596427917 0.20831839740276337 -0.0 0.0 -0.0 -76.83917999267578 -58.66608428955078 -68.56497192382812 -2.0449905395507812 69.5970230102539 2.334928035736084 1.5569581985473633 1.3096448183059692 16.851999282836914 -0.0 0.0 -0.0 10.672602653503418 9.620856285095215 2.5783655643463135 -0.1627015620470047 29.908594131469727 -2.7041568756103516 6.0112409591674805 -12.55157470703125 34.5117073059082
8.13470595603576 54.59359884262085 -95.88570026535308 12.77079963684082 26.994293212890625 11.952797889709473 -14.826604843139648 11.004183769226074 1.596453070640564 5.189611911773682 -10.401773452758789 0.6967785358428955 -8.402009010314941 15.76679801940918 -12.004393577575684 7.698549270629883 -22.133499145507812 -21.878406524658203 -0.0 0.0 -0.0 -0.0 0.0 -0.0 -0.0 0.0 -0.0 31.883703231811523 -19.721792221069336 65.36139678955078 -8.962488174438477 -3.5342342853546143 15.86960220336914 -0.5562099814414978 20.701993942260742 3.044523239135742 -0.0 0.0 -0.0 -0.0 0.0 -0.0 -0.0 0.0 -0.0 7.73087739944458 5.47489595413208 0.41732463240623474 -0.0 0.0 -0.0 2.9054994583129883 0.9650753736495972 0.10300876200199127 -0.0 0.0 -0.0 10.278595924377441 0.7317469120025635 0.026285577565431595 -0.0 0.0 -0.0 2.221662759780884 -0.7335850596427917 -0.20831839740276337 -0.0 0.0 -0.0 -112.92698669433594 44.81689453125 49.93659973144531 27.422603607177734 -42.76629638671875 -89.03939056396484 17.34861183166504 -71.02980041503906 24.13270378112793 -0.0 0.0 -0.0 -0.0 0.0 -0.0 -0.0 0.0 -0.0 -7.73087739944458 5.47489595413208 -0.41732463240623474 -0.0 0.0 -0.0 -2.9054994583129883 0.9650753736495972 -0.10300876200199127 -0.0 0.0 -0.0 -10.278595924377441 0.7317469120025635 -0.026285577565431595 -0.0 0.0 -0.0 -2.221662759780884 -0.7335850596427917 0.20831839740276337 -0.0 0.0 -0.0 -75.22460174560547 -58.560794830322266 -65.93339538574219 -2.0779809951782227 70.01750946044922 2.464085340499878 1.144193172454834 2.8942489624023438 18.526897430419922 -0.0 0.0 -0.0 9.447906494140625 10.63540267944336 2.2902843952178955 -0.15486252307891846 29.45929718017578 -2.59796142578125 6.048427104949951 -12.486668586730957 34.49900436401367
